<?xml version="1.0" encoding="UTF-8" standalone="no"?>
<!DOCTYPE svg PUBLIC "-//W3C//DTD SVG 1.1//EN" "http://www.w3.org/Graphics/SVG/1.1/DTD/svg11.dtd">
<svg xmlns="http://www.w3.org/2000/svg" xmlns:xlink="http://www.w3.org/1999/xlink" version="1.1" width="525.12pt" height="375.12pt" viewBox="0 0 525.12 375.12">
<g enable-background="new">
<clipPath id="cp0">
<path transform="matrix(.24,0,0,.24,0,0)" d="M 0 0 L 2187.5 0 L 2187.5 1562.5 L 0 1562.5 Z " fill-rule="evenodd"/>
</clipPath>
<g clip-path="url(#cp0)">
<path transform="matrix(.75,0,0,.75,0,0)" d="M 0 0 L 700 0 L 700 500 L 0 500 Z " fill="#ffffff"/>
</g>
<clipPath id="cp1">
<path transform="matrix(.24,0,0,.24,0,0)" d="M 0 0 L 2187.5 0 L 2187.5 1562.5 L 0 1562.5 Z " fill-rule="evenodd"/>
</clipPath>
<g clip-path="url(#cp1)">
<path transform="matrix(.75,0,0,.75,0,0)" d="M 242.87906 257.19606 L 242.87906 108.62462 C 246.54473 108.624629 250.20537 108.7601 253.86101 109.03105 C 257.5166 109.30201 261.15724 109.7077 264.78285 110.24812 C 268.40846 110.78854 272.0091 111.46223 275.5848 112.269168 C 279.16053 113.0761 282.70155 114.014087 286.20783 115.08312 C 289.71415 116.15216 293.17616 117.34933 296.59388 118.67462 C 300.01158 119.9999 303.37559 121.44969 306.68598 123.02398 C 309.99638 124.59827 313.24406 126.29275 316.429 128.10742 C 319.61396 129.92209 322.7275 131.85199 325.7696 133.89711 C 328.81175 135.94225 331.7741 138.09702 334.65675 140.3614 C 337.53935 142.62581 340.33433 144.99365 343.04167 147.46492 C 345.74903 149.93619 348.36137 152.50415 350.87864 155.1688 C 353.3959 157.83342 355.81126 160.58745 358.1247 163.43087 C 360.43815 166.27429 362.6433 169.19933 364.74028 172.20597 C 366.8372 175.2126 368.82014 178.29264 370.68913 181.44605 C 372.55809 184.59946 374.30793 187.81763 375.93867 191.10057 C 377.56944 194.3835 379.0766 197.72222 380.4602 201.1167 C 381.84385 204.5112 383.10014 207.9522 384.22908 211.43968 C 385.358 214.92717 386.3565 218.45162 387.22456 222.013 C 388.09263 225.57439 388.82789 229.163 389.43034 232.7788 C 390.03276 236.39459 390.5007 240.02771 390.83424 243.67815 C 391.16777 247.3286 391.36595 250.98639 391.4287 254.65152 C 391.49153 258.31663 391.41877 261.97904 391.21046 265.63877 C 391.00218 269.2985 390.6589 272.94554 390.18064 276.57987 C 389.7024 280.21418 389.09046 283.82585 388.34486 287.41487 C 387.59928 291.00389 386.72209 294.56047 385.71327 298.08457 C 384.70445 301.60868 383.5667 305.09068 382.30015 308.53053 C 381.03358 311.97044 379.6416 315.3588 378.12425 318.69566 C 376.60688 322.03254 374.96827 325.30876 373.2084 328.5243 C 371.44856 331.73988 369.57228 334.88603 367.57954 337.9627 C 365.58683 341.0394 363.48313 344.03825 361.26844 346.95924 C 359.05375 349.88023 356.73414 352.71534 354.3096 355.4646 C 351.88505 358.2139 349.36219 360.8698 346.74104 363.43238 L 242.87906 257.19606 Z " fill="#ffa500"/>
<text fill="#444444" xml:space="preserve" transform="matrix(.75 0 0 .75 235.73375 167.9834)" font-size="14" font-family="DejaVuSans"><tspan y="0" x="-26.068848 -17.164849 -8.260848 .64315226 5.0951526 17.177153">838 Mg</tspan></text>
<text fill="#444444" xml:space="preserve" transform="matrix(.75 0 0 .75 235.73375 167.9834)" font-size="14" font-family="DejaVuSans"><tspan y="18.199999" x="-22.237305 -13.333304 -4.429304 .022696019 8.926697">37.7%</tspan></text>
<path transform="matrix(.75,0,0,.75,0,0)" d="M 236 260 L 89.418689 284.2361 C 88.98065 281.58686 88.61471 278.92768 88.320858 276.25856 C 88.02701 273.58946 87.80568 270.91435 87.65687 268.2332 C 87.50807 265.55207 87.43201 262.8689 87.42869 260.18367 C 87.42537 257.49845 87.4948 254.81508 87.63697 252.13358 C 87.77916 249.4521 87.99388 246.77646 88.281139 244.10663 C 88.56839 241.43682 88.92776 238.77672 89.35924 236.12636 C 89.79073 233.47602 90.2937 230.83931 90.86815 228.21623 C 91.442607 225.59314 92.0877 222.98754 92.80342 220.39942 C 93.519168 217.81133 94.30449 215.24452 95.15939 212.699 C 96.014308 210.15349 96.937549 207.633 97.929119 205.13753 C 98.92069 202.64208 99.97914 200.17531 101.10446 197.73725 C 102.22978 195.29918 103.42033 192.89337 104.67609 190.51984 C 105.93186 188.14633 107.251018 185.80858 108.63354 183.50658 C 110.01607 181.20459 111.459949 178.94176 112.96516 176.71805 C 114.47038 174.49434 116.03474 172.31305 117.658229 170.17417 C 119.281719 168.03528 120.96195 165.94194 122.69894 163.89415 C 124.43594 161.84638 126.22714 159.84719 128.07254 157.89655 C 129.91794 155.94588 131.81482 154.04665 133.76319 152.19884 C 135.71157 150.35105 137.70858 148.55738 139.7542 146.81786 C 141.79984 145.07834 143.89109 143.3955 146.02794 141.76935 C 148.16483 140.14322 150.3442 138.57617 152.56603 137.0682 C 154.78786 135.56024 157.04892 134.11357 159.3492 132.7282 C 161.64949 131.34284 163.98561 130.0208 166.35758 128.76209 C 168.72954 127.50338 171.13385 126.30986 173.57051 125.18151 C 176.0072 124.053188 178.47266 122.9917 180.9669 121.99705 C 183.46114 121.00239 185.98049 120.07603 188.52494 119.21797 C 191.06941 118.359928 193.63526 117.571437 196.22246 116.85249 C 198.80968 116.13356 201.41446 115.485248 204.03682 114.90754 C 206.6592 114.32985 209.29529 113.82362 211.9451 113.38886 C 214.59493 112.9541 217.25458 112.591449 219.92404 112.30088 C 222.59352 112.01033 225.26892 111.79231 227.95021 111.64682 C 230.6315 111.50132 233.31478 111.428569 236 111.42856 L 236 260 Z " fill="#ff0000"/>
<text fill="#ffffff" xml:space="preserve" transform="matrix(.75 0 0 .75 128.7896 151.03012)" font-size="14" font-family="DejaVuSans"><tspan y="0" x="-26.068848 -17.164849 -8.260848 .64315226 5.0951526 17.177153">614 Mg</tspan></text>
<text fill="#ffffff" xml:space="preserve" transform="matrix(.75 0 0 .75 128.7896 151.03012)" font-size="14" font-family="DejaVuSans"><tspan y="18.199999" x="-22.237305 -13.333304 -4.429304 .022696019 8.926697">27.6%</tspan></text>
<path transform="matrix(.75,0,0,.75,0,0)" d="M 236 260 L 250.66698 407.8457 C 248.3475 408.07585 246.02391 408.25129 243.69618 408.37205 C 241.36846 408.49278 239.03917 408.5587 236.70832 408.5698 C 234.37749 408.58094 232.04769 408.5372 229.71892 408.43867 C 227.39014 408.34013 225.06496 408.18687 222.74338 407.97886 C 220.42183 407.7709 218.10645 407.50846 215.79723 407.19154 C 213.48802 406.87458 211.18755 406.50349 208.8958 406.07826 C 206.60405 405.65306 204.32358 405.17414 202.05437 404.64158 C 199.78516 404.109 197.52973 403.52336 195.28807 402.8846 C 193.04644 402.2459 190.82106 401.55485 188.61194 400.8114 C 186.40283 400.06797 184.21242 399.27299 182.04071 398.42643 C 179.86902 397.5799 177.71843 396.68278 175.58895 395.735 C 173.45948 394.78724 171.35346 393.7899 169.27092 392.74299 C 167.18839 391.69615 165.13162 390.60087 163.10063 389.45716 C 161.06964 388.3135 159.06668 387.12269 157.09175 385.8847 C 155.11682 384.6468 153.17209 383.36308 151.25756 382.03358 C 149.34304 380.70408 147.46083 379.3303 145.61096 377.91224 C 143.76111 376.49418 141.94562 375.0334 140.1645 373.52989 C 138.38339 372.02638 136.63863 370.4818 134.9302 368.89619 C 133.22179 367.31059 131.55162 365.68565 129.91968 364.0214 C 128.28774 362.35713 126.69585 360.6554 125.144 358.91624 C 123.592159 357.17707 122.08207 355.40238 120.613758 353.59217 C 119.14544 351.7819 117.720508 349.93815 116.33896 348.06086 C 114.95742 346.18354 113.6208 344.27479 112.3291 342.33457 C 111.03739 340.39436 109.79203 338.42485 108.59302 336.426 C 107.39401 334.4272 106.24268 332.40129 105.13902 330.34828 C 104.03537 328.29527 102.98061 326.2174 101.97475 324.11479 C 100.96889 322.01216 100.01304 319.887 99.10719 317.73936 C 98.20135 315.59169 97.34652 313.42393 96.5427 311.23603 C 95.73889 309.0482 94.98698 306.84263 94.28697 304.61936 C 93.58697 302.3961 92.93964 300.1576 92.34498 297.90385 C 91.75032 295.65013 91.20901 293.38365 90.72102 291.10444 C 90.23304 288.82524 89.798938 286.5358 89.4187 284.23616 L 236 260 Z " fill="#0000ff"/>
<text fill="#ffffff" xml:space="preserve" transform="matrix(.75 0 0 .75 136.73796 244.44551)" font-size="14" font-family="DejaVuSans"><tspan y="0" x="-26.068848 -17.164849 -8.260848 .64315226 5.0951526 17.177153">533 Mg</tspan></text>
<text fill="#ffffff" xml:space="preserve" transform="matrix(.75 0 0 .75 136.73796 244.44551)" font-size="14" font-family="DejaVuSans"><tspan y="18.199999" x="-15.558594 -6.6545937 2.2494069">24%</tspan></text>
<path transform="matrix(.75,0,0,.75,0,0)" d="M 236 260 L 339.86198 366.23634 C 333.87004 372.09437 327.4286 377.40745 320.53767 382.17555 C 313.64668 386.94364 306.40415 391.09898 298.81013 394.64158 C 291.21607 398.1842 283.3784 401.06373 275.2971 403.28016 C 267.2158 405.4966 259.00575 407.01847 250.66696 407.8457 L 236 260 Z " fill="#008000"/>
<text fill="#ffffff" xml:space="preserve" transform="matrix(.75 0 0 .75 212.38648 267.77934)" font-size="14" font-family="DejaVuSans"><tspan y="0" x="-26.068848 -17.164849 -8.260848 .64315226 5.0951526 17.177153">239 Mg</tspan></text>
<text fill="#ffffff" xml:space="preserve" transform="matrix(.75 0 0 .75 212.38648 267.77934)" font-size="14" font-family="DejaVuSans"><tspan y="18.199999" x="-22.237305 -13.333304 -4.429304 .022696019 8.926697">10.7%</tspan></text>
<path transform="matrix(.75,0,0,.75,298.68,75)" d="M 0 0 L 290 0 L 290 86 L 0 86 Z " fill="#ffffff"/>
</g>
<clipPath id="cp2">
<path transform="matrix(.24,0,0,.24,0,0)" d="M 1244.5 312.5 L 2150.75 312.5 L 2150.75 581.25 L 1244.5 581.25 Z " fill-rule="evenodd"/>
</clipPath>
<g clip-path="url(#cp2)">
<text fill="#2a3f5f" xml:space="preserve" transform="matrix(.75 0 0 .75 298.68 85.875)" font-size="12" font-family="DejaVuSans"><tspan y="4.68" x="40 48.208 53.14 57.844 61.18 67.432 74.788 82.396 89.75201 93.088008 96.90401 104.26001 111.86801 119.488018 123.304019 130.92401 142.61202 149.96802 153.30402 156.64002 160.45601 168.076 174.67601 182.03202 185.36801 192.74802 196.56401 205.86402 213.20801 216.544 224.164 227.98 238.336 241.672 249.28 252.616 260.224">Artisanal and Small Scale Gold Mining</tspan></text>
<path transform="matrix(.75,0,0,.75,313.68,85.875)" d="M -6 -6 L 6 -6 L 6 6 L -6 6 Z " fill="#ffa500"/>
<text fill="#2a3f5f" xml:space="preserve" transform="matrix(.75 0 0 .75 298.68 100.125)" font-size="12" font-family="DejaVuSans"><tspan y="4.68" x="40 43.54 51.148004 58.768007 66.37601 72.628009 77.33201 82.26401 89.36801 93.18401 100.804019 108.18401 114.78401 119.488018 126.832019 131.76403">Industry Sectors</tspan></text>
<path transform="matrix(.75,0,0,.75,313.68,100.125)" d="M -6 -6 L 6 -6 L 6 6 L -6 6 Z " fill="#ff0000"/>
<text fill="#2a3f5f" xml:space="preserve" transform="matrix(.75 0 0 .75 298.68 114.375)" font-size="12" font-family="DejaVuSans"><tspan y="4.68" x="40 46.246095 53.854097 61.234098 64.5701 68.3861 74.9861 82.3301 94.018108 101.63811 109.24611 115.49811 120.20211 123.53811 130.88211">Fuel combustion</tspan></text>
<path transform="matrix(.75,0,0,.75,313.68,114.375)" d="M -6 -6 L 6 -6 L 6 6 L -6 6 Z " fill="#0000ff"/>
<text fill="#2a3f5f" xml:space="preserve" transform="matrix(.75 0 0 .75 298.68 128.625)" font-size="12" font-family="DejaVuSans"><tspan y="4.68" x="40 43.54 51.148004 55.852006 63.232007 70.840007 75.54401 78.880008 86.22401 93.83201 101.18801 104.52401 108.34001 117.12401 123.37601 130.75601 135.436 138.772 146.38 152.98001 156.31601 163.92401 171.544 174.88 182.488 190.108 193.924 201.54399 206.17774 213.52173 221.14173 228.74973 235.34973 240.05373 243.86972 253.68572 261.04173 267.29374 271.99775 279.37776">Intentional Use(including product waste)</tspan></text>
<path transform="matrix(.75,0,0,.75,313.68,128.625)" d="M -6 -6 L 6 -6 L 6 6 L -6 6 Z " fill="#008000"/>
</g>
</g>
</svg>
